<svg xmlns="http://www.w3.org/2000/svg" xml:space="preserve" id="Layer_1" x="0" y="0" style="enable-background:new 0 0 1000 1000" version="1.1" viewBox="0 0 1000 1000"><style>.st0{fill:#fefefe}.st1{fill:#fed428}.st3{fill:#fdfdfd}</style><g id="NAeQb5_00000088129047663260482790000009141214543952036743_"><path d="M773.15 162.22c2.57 2.4 8.17 3.18 9.42 6.09 7.34 7.91 14.35 16.95 14.97 28.24-.24 9.08 6.47 5.42 12.93 7.67 32.8 8.15 40.61 56.88 12.52 75.46-12.48 8.91-28.11 11.95-42.88 7.79-11.86-7.26-17.2 3.93-24.97 10.49-21.73 20.23-42.19 41.76-63.82 62.03-29.31 29.16-15.95 7.05 4.42 62.01 1.41 3.4 2.13 8.52 6.67 8.64 34.54 6.95 68.76 16.43 101.35 29.84 15.39 6.17 30.65 12.69 46.15 18.51 1.81 1.3 5.43 1.14 5.1 4.06-.32 2.88-3.74 2.39-5.91 3-45.41 11.63-92.24 17.3-138.18 24.68-2.82 15.32-3.65 31.22-8.5 46.73-3.72 12.27-8.14 24.28-13.7 35.86-2.33 3.5-3.96 7.4-6.18 10.96-2.43 2.93-.7 4.95 1.42 7.02 24.48 24.28 48.97 48.4 73.62 72.51 9.32 12.11 18.16-2.04 33.69.48 12.99 1.58 25.22 7.42 33.81 17.44 20.64 22.6 6.37 64.98-24.74 68.67-7.39.22-7.45.21-8.75 7.69-6.53 35.51-36.33 46.93-66.73 28.65-22.92-8.56-26.8-37.13-16.49-56.81 4.85-8.92 4.85-8.92-2.28-16.03-5.51-6.1-12.06-11.05-17.87-16.82-17.79-18.05-36.02-35.56-53.73-53.59-2.04-3.13-23 14.78-28.13 16.62-16.74 10.5-21.92 5.61-12.61 18.95 27.47 49.39.96 120.76-53.66 137.56-34.73 8.4-73.48 5.79-104.39-13.03-41.14-30.93-54.16-79.23-27.71-124.59 5.44-7.86 5.44-7.86-3.11-12.07-6.3-3.03-12.42-6.36-18.35-10.06-29.06-15.22-21.91-27.56-40.02-7.32-21.7 20.75-43.2 41.7-64.21 63.21-19.43 15.7 6.13 18.78-.93 50.66-12.65 46.19-82.66 45.06-87.68-4.86.39-8.08-3-6.39-9.35-7.3-31.67-4.84-44.41-48.86-21.99-70.83 14.04-14.58 35.97-19 54.57-11.27 4.61 2.16 6.09.52 8.74-3.18 2.01-1.59 4.13-3.04 5.84-4.97 26.88-24.28 51.64-51.17 78.51-75.52 5-4.72-5.21-15.13-6.62-20.78-3.95-9.25-7.09-18.83-10.09-28.44-3.23-13.21-5.77-26.55-6.69-40.11-.06-1.62.46-3.56-2.14-3.76-46.54-5.11-92.68-13.17-138.65-22.48-1.75-1.83-.42-2.97.91-4.11 18.44-9.4 36.59-19.35 55.73-27.35 16.17-6 32.8-10.66 49.21-15.93 13.84-3.42 27.74-6.61 41.61-9.91 5.39.3 6.37-5.32 7.28-9.45 6.86-15.04 13.56-30.09 22.82-43.74.48-1.63-.47-2.57-1.61-3.44-4.66-3.54-8.4-8.04-12.66-12-16.69-16.54-34.4-31.88-50.78-48.76-6.95-7.53-15.01-13.98-21.95-21.47-3.93-4.78-8.29-6.07-13.74-2.81-22.38 8.76-49.85-2.54-59.67-24.57-12.24-27.19 8.88-60.25 38.93-59.73 2.48-54.14 71.79-60.9 88.36-11.32 3.72 13.46-1.09 27.44-7.31 39.34-1.5 2.07-.29 3.46 1.15 4.87 14.27 13.62 27.27 28.71 42.1 41.66 11.79 10.04 22.22 21.39 33.57 31.81 5.2 3.63 11.61 17.18 18.48 10.57 36.98-25.88 82.43-39.51 127.53-38.12 40.17 1.69 79.76 14.76 112.8 37.76 5.52 6.28 9.49-2.47 13.68-5.73 6.71-6.58 13.34-13.23 19.94-19.93 21.19-20.27 42.05-40.92 63.25-61.18 2.59-2.24 3.22-4.56 1.05-7.52-3.59-5.28-4.5-11.87-6.96-17.69-7.85-36.32 31.22-61.89 63.61-48.95z"/><path d="M462.75 463.08c72.94-.52 146.51-.73 218.82 9.77 9.96 2.18 15.42 8.2 15.63 18.27 9.84 135.72-141.04 245.27-266.67 192.12-78.49-26.69-134.29-102.6-131-186.45.13-10.29 10.1-19.43 22.66-21.92 46.34-9 93.59-9.7 140.56-11.79z" class="st0"/><path d="M508.05 299.45c66.19 1.99 130.17 40.57 161.22 98.96-113.91-17.21-227.69-18.45-342.19.44 36.24-64.55 108.02-103.99 180.97-99.4zM689.91 441.85c43.59 7.92 87.13 19.9 127.28 38.59-35.07 6.86-68.99 11.65-104.24 15.78-2.3.27-3.47.27-3.52-2.57-.34-20.49-11.74-31.65-34.23-34.18-111.1-11.07-223.77-12.87-334.77.16-21.53 1.71-51.04 9.28-52.48 35.48-.16 3.35-1.33 3.81-4.23 3.55-34.44-3.44-68.47-8.69-102.38-15.72 154.29-67.93 344.63-68.28 508.57-41.09z" class="st1"/><path d="M756.59 170.89c20.85-1.21 30.62 22.6 28.1 42.76 1.99 10.04 36.95-11.18 42.34 30.22 2.01 27.42-33.88 40.49-55.37 25.67-3-1.62-4.89-1.58-7.5.97-29.72 29.09-59.59 58.04-89.42 87.02-9.21 10.74-10.68 12.92-19.19-.24-6.21-6.68-12.46-13.33-19.53-19.09-2.74-2.23-2.67-3.18-.15-5.63 32.12-31.27 64.06-62.73 96.17-94.01 2.93-2.86 3.69-4.76 1.05-8.4-19.49-23.91-11.44-60.13 23.5-59.27zM332.74 368.38c-32.07-31.28-64.24-62.03-96.36-93.2-2.59-2.51-4.52-2.86-7.9-1.06-27.93 17.8-66.31-5.85-52.48-36.97 9.64-26.67 40.81-9.4 39.84-20.09-9.03-57.53 73.94-53.85 60.2.15-2.34 6.65-5.39 12.96-9.54 18.69-1.59 2.2-1.81 3.7.52 5.94 31.66 30.46 62.92 61.34 94.58 91.8 1.73 1.63 2.1 2.63.02 4.36-10.74 8.91-20.09 19.16-28.88 30.38zM196.91 698.82c12.94-1.37 25.9 11.39 30.08 5.56 30.2-29.58 60.77-58.78 90.96-88.37 1.93-1.92 2.74-2.09 4.46.45 7.06 10.39 15.04 20.07 24.3 28.59 2.51 2.31 2.39 3.55-.09 5.95-29.12 28.25-58.04 56.7-87.18 84.92-3.19 3.09-3.39 5.16-.94 8.78 40.43 53.2-45.77 87.62-51.47 28.36-.97-11.78 3.9-16.97-11.77-14.96-42.75 1.67-39.71-59.23 1.65-59.28zM788.64 757.49c-16.89-2.06-5.72 12.99-12.55 27.32-8.68 26.25-49.08 21.8-57.22-.34-4.04-9.58-2.66-18.86 1.32-27.91 1-5.35 12.27-16.17 7.43-19.91-18.75-18.19-37.33-36.56-55.91-54.93-9.28-9.17-18.41-18.49-27.76-27.6-1.75-1.7-.95-2.35.31-3.53 9.64-9.08 18.62-18.77 26.27-29.61 1.49-2.11 2.22-1.54 3.76-.06 28.83 27.24 56.38 55.78 85.04 83.18 1.76 1.73 3.09 2.06 5.2.8 52.45-31.44 85.3 49.56 24.11 52.59zM588.94 759.6c-5.79 64.24-85.09 84.61-135.84 58.08-24.81-10.96-36.54-34.37-46.53-58.23 60.99 17.28 121.46 19.62 182.37.15z" class="st0"/><path d="M431.59 415.88c-38.84 2.12-77.45 7.08-115.9 14.27-7.36 1.85 3.58-13.76 3.31-16.89.37-1.44 1.33-1.21 2.31-1.39 29.03-5.37 58.14-9.76 87.57-11.51 66.71-6 134.8-4.72 201.14 2.08 14.29 1.12 28.25 3.58 42.35 5.16 21.2 4.72 23.8-3.32 31.5 20.4-82.97-12.68-167.99-17.98-252.28-12.12z" style="fill:#fe2c10"/><path d="M502.13 762.88c-33.64.46-21.77 2.48-18.91-26.78.36-2.29 1.61-2.24 3.21-2.19 10.46.32 20.93.55 31.38-.22 2.28-.17 3.25.49 3.78 2.92 6.43 31.04 13.72 25.06-19.45 26.94-.01-.22-.01-.44-.01-.67zM467.21 761.71c-11.14-1.01-22.63-3.08-34.14-4.95-2.44-.4-1.52-1.83-1.07-3 2.94-7.67 6.07-15.27 8.86-23 .9-2.5 2.47-2.02 4.06-1.63 32.5 9.71 32.97-8.06 25.92 29.79-.33 1.88-.72 3.42-3.63 2.79zM538.67 760.67c-3.84 2.87-6.66-21.31-8.68-24.82-.66-2.4-.15-3.36 2.37-3.7 4.4.48 19.68-5.76 20.5-.8 7.67 29.3 18.44 23.94-14.19 29.32zM586.26 718.48c3.16 8.77 4.12 17.88 4.29 27.13-.27 6.09-11.31 5.55-15.76 7.98-1.9.56-3.35.6-4.15-2.09-9-30.35-14.33-20.86 15.62-33.02zM407.95 739.91c3.7-26.85 3.75-21.45 23.4-14.59 2.51.8 2.78 1.69 1.85 3.97-3.04 7.43-5.95 14.92-8.76 22.44-1.04 4.13-3.93 2-6.95 1.66-8.87-2.29-9.53-3.17-9.54-13.48z" class="st0"/><path d="M446.08 718.24c7.36-24.06 11.01-12.37 30.19-11.34 5.26-.14 3.82 3.79 2.99 7.24-1.5 9.83-1.51 9.95-11.22 8.36-7.24-1.19-14.58-2.03-21.96-4.26z" class="st3"/><path d="M501.25 724.6c-3.8-.6-12.8 1.61-14.18-1.09-.71-1.74.15-17.07 3.82-15.17 4.42 1.04 23.19-2.64 23.01 2.5 2.7 13.26 3.18 13.92-12.65 13.76z" style="fill:#fcfcfc"/><path d="M573.06 694.95c1.5-.31 2.09.83 2.81 1.77 8.09 10.45 7.95 11.04-4.11 15.98-6.83 1.67-14.05 9.16-16-1.54-1.05-3.18-4.17-6.78-2.66-9.37 4.71-3.41 14.14-4.09 19.96-6.84zM526.11 723.44c-2.56.76-2.18-3.31-2.52-4.91-4.53-14.17.57-11.56 12.22-13.32 8.54-1.27 8.54-1.27 11.4 7.07 2.44 7.13 2.47 7.26-5.12 8.75-5.19 1.02-10.47 1.6-15.98 2.41zM444.37 701.51c-8.6 20.15-4.35 13.48-22.8 6.87-2.13-.9-2.81-1.6-1.23-3.98 6.2-9.34 6.08-9.42 16.94-6.09 6.98 2.14 6.98 2.14 7.09 3.2z" class="st3"/><path d="M589.59 628.03c-84.48.64-85.96-128.91-1.34-130.43 86.26-.64 87.45 129.59 1.34 130.43zM408.52 628.04c-85.47-.07-85.28-130.83.88-130.4 84.37 1.13 84.5 130.18-.88 130.4zM524.6 641.11c-.85 33.79-50.86 33.59-51.26-.29.51-33.31 50.95-33.01 51.26.29z"/></g></svg>